# xmcd
#
# Track frame offsets:
#	150
#	13138
#	31754
#	48945
#	66665
#	86530
#	105715
#	123897
#	138939
#	151975
#	167490
#	201382
#	221181
#	241081
#	259287
#
# Disc length: 3727 seconds
#
# Revision: 0
# Processed by: cddbd v1.5.2PL0 Copyright (c) Steve Scherf et al.
# Submitted via: EZCDAudioConverter 2.8.0.1
#
DISCID=d00e8d0f
DTITLE=곱창전골 - 빈티지락-곱창전골의 역사
DYEAR=2015
DGENRE=blues
TTITLE0=Love Camp
TTITLE1=빨갛고 노란 나비
TTITLE2=나와 같이 춤 추자
TTITLE3=500년 사랑
TTITLE4=하나 둘 셋
TTITLE5=Blue Note City
TTITLE6=Home
TTITLE7=니가 없는 방
TTITLE8=빗속의 여인
TTITLE9=그리워라
TTITLE10=미인
TTITLE11=마지막 여인
TTITLE12=노가리 트위스트
TTITLE13=정보 정키
TTITLE14=Inner Trip
EXTD=
EXTT0=
EXTT1=
EXTT2=
EXTT3=
EXTT4=
EXTT5=
EXTT6=
EXTT7=
EXTT8=
EXTT9=
EXTT10=
EXTT11=
EXTT12=
EXTT13=
EXTT14=
PLAYORDER=
